<?xml version="1.0" encoding="utf-8"?>
<!-- Generator: Adobe Illustrator 15.0.0, SVG Export Plug-In . SVG Version: 6.00 Build 0)  -->
<!DOCTYPE svg PUBLIC "-//W3C//DTD SVG 1.1//EN" "http://www.w3.org/Graphics/SVG/1.1/DTD/svg11.dtd">
<svg version="1.1" id="Layer_1" xmlns="http://www.w3.org/2000/svg" xmlns:xlink="http://www.w3.org/1999/xlink" x="0px" y="0px"
	 width="520.87px" height="595.28px" viewBox="37.205 123.305 520.87 595.28" enable-background="new 37.205 123.305 520.87 595.28"
	 xml:space="preserve">
<g>
	<path fill="#E2E5E7" d="M148.82,123.305c-20.462,0-37.204,16.743-37.204,37.205v520.87c0,20.463,16.742,37.205,37.204,37.205
		H520.87c20.462,0,37.205-16.742,37.205-37.205V272.125l-148.82-148.82H148.82z"/>
	<path fill="#B0B7BD" d="M446.46,272.125h111.615l-148.82-148.82V234.92C409.255,255.383,425.997,272.125,446.46,272.125z"/>
	<polygon fill="#CAD1D8" points="558.075,383.74 446.46,272.125 558.075,272.125 	"/>
	<path fill="#D91324" d="M483.665,606.97c0,10.231-8.371,18.603-18.603,18.603H55.808c-10.231,0-18.603-8.371-18.603-18.603V420.945
		c0-10.231,8.371-18.603,18.603-18.603h409.255c10.231,0,18.603,8.371,18.603,18.603V606.97z"/>
	<path fill="#CAD1D8" d="M465.063,625.572H111.615v18.603h353.447c10.231,0,18.603-8.371,18.603-18.603V606.97
		C483.665,617.201,475.294,625.572,465.063,625.572z"/>
	<g>
		<path fill="#FFFFFF" d="M170.573,525.755h-19.927v38.981h-20.218V461.176h40.145c21.381,0,34.181,14.689,34.181,32.29
			C204.754,511.064,191.954,525.755,170.573,525.755z M169.555,479.211h-18.909v28.363h18.909c9.163,0,14.981-5.673,14.981-14.108
			S178.719,479.211,169.555,479.211z"/>
		<path fill="#FFFFFF" d="M294.089,554.847c-6.836,6.835-16.582,9.89-27.345,9.89h-37.38V461.176h37.38
			c10.764,0,20.509,3.054,27.345,9.891c11.636,11.636,10.472,25.89,10.472,41.453C304.561,528.082,305.725,543.21,294.089,554.847z
			 M279.98,485.611c-3.491-4.218-8.145-6.4-15.127-6.4h-15.272V546.7h15.272c6.982,0,11.636-2.182,15.127-6.399
			c3.782-4.654,4.363-12.072,4.363-27.781S283.761,490.266,279.98,485.611z"/>
		<path fill="#FFFFFF" d="M353.023,479.211v25.454h40.872V522.7h-40.872v42.036h-20.218V461.176h68.217v18.035H353.023z"/>
	</g>
</g>
</svg>
